G04 Layer_Color=8388736*
%FSLAX25Y25*%
%MOIN*%
G70*
G01*
G75*
%ADD72R,0.04501X0.03753*%
%ADD73R,0.05131X0.05524*%
%ADD74R,0.02375X0.03261*%
%ADD75R,0.04737X0.10642*%
%ADD76R,0.04147X0.04540*%
%ADD77R,0.03753X0.04501*%
%ADD78R,0.06587X0.04619*%
%ADD79R,0.04658X0.03871*%
%ADD80R,0.22532X0.08123*%
%ADD81R,0.11509X0.05761*%
%ADD82R,0.03162X0.03241*%
%ADD83R,0.14304X0.04147*%
%ADD84R,0.09461X0.04934*%
%ADD85R,0.04934X0.04737*%
%ADD86R,0.04737X0.11430*%
%ADD87R,0.03753X0.03359*%
%ADD88R,0.04737X0.04737*%
%ADD89R,0.04737X0.04737*%
%ADD90R,0.04343X0.04540*%
%ADD91R,0.04540X0.04343*%
%ADD92R,0.04737X0.04147*%
%ADD93R,0.03556X0.04343*%
%ADD94R,0.04461X0.04225*%
%ADD95R,0.03261X0.02375*%
%ADD96R,0.04147X0.04737*%
%ADD97R,0.04107X0.01824*%
%ADD98R,0.06706X0.10052*%
%ADD99R,0.05524X0.03162*%
%ADD100R,0.06700X0.08700*%
%ADD101R,0.15800X0.08700*%
%ADD102R,0.02768X0.10642*%
%ADD103R,0.08674X0.10642*%
%ADD104R,0.02768X0.03162*%
%ADD105R,0.07887X0.11627*%
%ADD106R,0.01666X0.03989*%
%ADD107R,0.03989X0.01666*%
%ADD108R,0.17335X0.17335*%
%ADD109R,0.03950X0.06706*%
%ADD110R,0.04737X0.08674*%
%ADD111R,0.11784X0.03713*%
%ADD112R,0.04540X0.04737*%
%ADD113C,0.12611*%
%ADD114R,0.07887X0.07887*%
%ADD115C,0.07887*%
%ADD116R,0.07296X0.07296*%
%ADD117C,0.07296*%
%ADD118R,0.06706X0.06706*%
%ADD119C,0.06706*%
%ADD120R,0.06706X0.06706*%
%ADD121C,0.04343*%
%ADD122C,0.03400*%
D72*
X268360Y100141D02*
D03*
Y94629D02*
D03*
X205000Y102756D02*
D03*
Y97244D02*
D03*
X107000Y66756D02*
D03*
Y61244D02*
D03*
X261844Y99956D02*
D03*
Y94444D02*
D03*
X216900Y75900D02*
D03*
Y81412D02*
D03*
X223800Y81468D02*
D03*
Y75956D02*
D03*
X199500Y102656D02*
D03*
Y97144D02*
D03*
X245700Y76544D02*
D03*
Y82056D02*
D03*
X231000Y81456D02*
D03*
Y75944D02*
D03*
X237400Y81356D02*
D03*
Y75844D02*
D03*
X163700Y106884D02*
D03*
Y101372D02*
D03*
X180700Y106884D02*
D03*
Y101372D02*
D03*
X172200Y106884D02*
D03*
Y101372D02*
D03*
D73*
X250444Y115047D02*
D03*
Y108353D02*
D03*
X255956D02*
D03*
Y115047D02*
D03*
D74*
X209800Y102522D02*
D03*
Y99278D02*
D03*
D75*
X171000Y161500D02*
D03*
X181000D02*
D03*
X191000D02*
D03*
X201000D02*
D03*
X220500Y162000D02*
D03*
X230500D02*
D03*
X240500D02*
D03*
X250500D02*
D03*
D76*
X209350Y60900D02*
D03*
X215650D02*
D03*
X85050Y134200D02*
D03*
X78750D02*
D03*
D77*
X66856Y127700D02*
D03*
X61344D02*
D03*
X61144Y122200D02*
D03*
X66656D02*
D03*
X229044Y130700D02*
D03*
X234556D02*
D03*
X229044Y136700D02*
D03*
X234556D02*
D03*
X272400Y85500D02*
D03*
X266888D02*
D03*
D78*
X66800Y76368D02*
D03*
Y69832D02*
D03*
D79*
X58000Y81256D02*
D03*
Y75744D02*
D03*
X108000Y72744D02*
D03*
Y78256D02*
D03*
D80*
X161500Y125539D02*
D03*
Y145461D02*
D03*
D81*
X129000Y60264D02*
D03*
Y70736D02*
D03*
D82*
X248415Y124000D02*
D03*
X244793D02*
D03*
D83*
X107000Y180110D02*
D03*
Y162000D02*
D03*
D84*
X264904Y135607D02*
D03*
Y123993D02*
D03*
D85*
X258900Y129800D02*
D03*
D86*
X90969Y61600D02*
D03*
X99631D02*
D03*
D87*
X231735Y124100D02*
D03*
X236065D02*
D03*
X250539Y140200D02*
D03*
X254869D02*
D03*
D88*
X274659Y94039D02*
D03*
Y99944D02*
D03*
D89*
X235053Y145500D02*
D03*
X229147D02*
D03*
D90*
X104474Y131500D02*
D03*
X98175D02*
D03*
X100350Y118500D02*
D03*
X106650D02*
D03*
X70150Y85100D02*
D03*
X76450D02*
D03*
X108150Y92500D02*
D03*
X101850D02*
D03*
D91*
X76300Y76250D02*
D03*
Y69950D02*
D03*
D92*
X114000Y78453D02*
D03*
Y72547D02*
D03*
D93*
X244898Y129500D02*
D03*
X250804D02*
D03*
X244851Y134700D02*
D03*
X250757D02*
D03*
D94*
X246000Y38929D02*
D03*
Y45071D02*
D03*
D95*
X244722Y145300D02*
D03*
X241478D02*
D03*
D96*
X183900Y53000D02*
D03*
X189805D02*
D03*
X204053Y53300D02*
D03*
X198147D02*
D03*
X229453Y60900D02*
D03*
X223547D02*
D03*
D97*
X77850Y125937D02*
D03*
Y123969D02*
D03*
Y120031D02*
D03*
Y122000D02*
D03*
X89150D02*
D03*
Y120031D02*
D03*
X77850Y118063D02*
D03*
X89150D02*
D03*
Y123969D02*
D03*
Y125937D02*
D03*
D98*
X83500Y122000D02*
D03*
D99*
X97221Y76860D02*
D03*
Y80600D02*
D03*
Y84340D02*
D03*
X87379D02*
D03*
Y80600D02*
D03*
Y76860D02*
D03*
D100*
X127100Y101600D02*
D03*
X136100D02*
D03*
X145100D02*
D03*
D101*
X136000Y126400D02*
D03*
D102*
X80258Y155425D02*
D03*
X77109D02*
D03*
X73959D02*
D03*
X70810D02*
D03*
X67660D02*
D03*
D103*
X91518D02*
D03*
X56400D02*
D03*
X91518Y177000D02*
D03*
X56400D02*
D03*
D104*
X122000Y161969D02*
D03*
Y158031D02*
D03*
D105*
X266376Y71500D02*
D03*
X275824D02*
D03*
D106*
X237324Y116500D02*
D03*
X235749D02*
D03*
X234174D02*
D03*
X232599D02*
D03*
X231024D02*
D03*
X229450D02*
D03*
X227875D02*
D03*
X226300D02*
D03*
X224725D02*
D03*
X223150D02*
D03*
X221576D02*
D03*
X220001D02*
D03*
Y93272D02*
D03*
X221576D02*
D03*
X223150D02*
D03*
X224725D02*
D03*
X226300D02*
D03*
X227875D02*
D03*
X229450D02*
D03*
X231024D02*
D03*
X232599D02*
D03*
X234174D02*
D03*
X235749D02*
D03*
X237324D02*
D03*
D107*
X240276Y96224D02*
D03*
Y97799D02*
D03*
Y99374D02*
D03*
Y100949D02*
D03*
Y102524D02*
D03*
Y104098D02*
D03*
Y105673D02*
D03*
Y107248D02*
D03*
Y108823D02*
D03*
Y110398D02*
D03*
Y111972D02*
D03*
Y113547D02*
D03*
X217048D02*
D03*
Y111972D02*
D03*
Y110398D02*
D03*
Y108823D02*
D03*
Y107248D02*
D03*
Y105673D02*
D03*
Y104098D02*
D03*
Y102524D02*
D03*
Y100949D02*
D03*
Y99374D02*
D03*
Y97799D02*
D03*
Y96224D02*
D03*
D108*
X228662Y104886D02*
D03*
D109*
X201547Y87300D02*
D03*
X207453D02*
D03*
D110*
X193200Y24071D02*
D03*
X183200D02*
D03*
X173200D02*
D03*
X163200D02*
D03*
X153200D02*
D03*
X143200D02*
D03*
D111*
X153588Y65700D02*
D03*
X169612D02*
D03*
X153588Y60700D02*
D03*
X169612D02*
D03*
X153588Y55700D02*
D03*
X169612D02*
D03*
X153588Y50700D02*
D03*
X169612D02*
D03*
X153588Y45700D02*
D03*
X169612D02*
D03*
D112*
X204350Y110800D02*
D03*
X198050D02*
D03*
D113*
X26700Y131578D02*
D03*
Y155200D02*
D03*
X8196Y143389D02*
D03*
D114*
X23500Y83500D02*
D03*
X25000Y22500D02*
D03*
D115*
X23500Y103500D02*
D03*
X25000Y42500D02*
D03*
D116*
X131000Y169000D02*
D03*
D117*
X141000D02*
D03*
X151000D02*
D03*
D118*
X198000Y41500D02*
D03*
X219700Y142700D02*
D03*
X132500Y150000D02*
D03*
X269700Y114900D02*
D03*
X63200Y104600D02*
D03*
X104000Y151500D02*
D03*
X120500Y138000D02*
D03*
X133000Y84000D02*
D03*
D119*
X188000Y41500D02*
D03*
X171100Y79200D02*
D03*
X209700Y142700D02*
D03*
X142500Y150000D02*
D03*
X279700Y114900D02*
D03*
X73200Y104600D02*
D03*
X114000Y151500D02*
D03*
X130500Y138000D02*
D03*
X143000Y84000D02*
D03*
X277358Y30205D02*
D03*
X259642D02*
D03*
X277358Y55795D02*
D03*
X259642D02*
D03*
D120*
X171100Y89200D02*
D03*
D121*
X82621Y165307D02*
D03*
X65298D02*
D03*
D122*
X93000Y89700D02*
D03*
X89400Y89600D02*
D03*
X86200D02*
D03*
X103400Y82300D02*
D03*
X244500Y85000D02*
D03*
X160200Y39100D02*
D03*
X165100Y111000D02*
D03*
X250800Y99600D02*
D03*
X199500Y105800D02*
D03*
X191200Y97800D02*
D03*
X160500Y87100D02*
D03*
X160700Y75300D02*
D03*
X163900Y90800D02*
D03*
X96100Y123200D02*
D03*
X83600Y122400D02*
D03*
Y119600D02*
D03*
Y125100D02*
D03*
X55900Y128500D02*
D03*
X49400Y124900D02*
D03*
Y128400D02*
D03*
X52700D02*
D03*
X52800Y124900D02*
D03*
Y121100D02*
D03*
X49400D02*
D03*
X55900D02*
D03*
Y124900D02*
D03*
X94300Y72100D02*
D03*
X90900D02*
D03*
X262929Y45071D02*
D03*
X161500Y132500D02*
D03*
X122000Y155000D02*
D03*
X127000Y94000D02*
D03*
X66800Y80800D02*
D03*
X213000Y85800D02*
D03*
X178700Y65700D02*
D03*
X180900Y97300D02*
D03*
X180600Y84500D02*
D03*
X186500Y96900D02*
D03*
X177700Y93400D02*
D03*
X70000Y90500D02*
D03*
X190300Y85000D02*
D03*
X209350Y53750D02*
D03*
X153200Y30400D02*
D03*
X266888Y80788D02*
D03*
X268360Y90340D02*
D03*
X261747Y115047D02*
D03*
X180700Y111000D02*
D03*
X172200Y110600D02*
D03*
X169800Y72900D02*
D03*
X264404Y124300D02*
D03*
X215500Y91800D02*
D03*
X184800Y83900D02*
D03*
X159900Y32000D02*
D03*
X161500Y53300D02*
D03*
X113000Y61000D02*
D03*
X156500Y83800D02*
D03*
X111700Y92300D02*
D03*
X205000Y105600D02*
D03*
X188800Y93300D02*
D03*
X239200Y136600D02*
D03*
X239100Y132300D02*
D03*
X183600Y93400D02*
D03*
X212500Y162000D02*
D03*
X217000Y72500D02*
D03*
X223600D02*
D03*
X231000D02*
D03*
X237300D02*
D03*
X104500Y126200D02*
D03*
X145400Y52100D02*
D03*
M02*
