G04 Layer_Physical_Order=2*
G04 Layer_Color=16711680*
%FSLAX25Y25*%
%MOIN*%
G70*
G01*
G75*
%ADD52C,0.02000*%
%ADD53C,0.00700*%
%ADD56C,0.11811*%
%ADD57R,0.07087X0.07087*%
%ADD58C,0.07087*%
%ADD59R,0.06496X0.06496*%
%ADD60C,0.06496*%
%ADD61R,0.05905X0.05905*%
%ADD62C,0.05905*%
%ADD63R,0.05905X0.05905*%
%ADD64C,0.03543*%
%ADD65C,0.02600*%
G36*
X295400Y1733D02*
X1733D01*
Y184767D01*
X295400D01*
X295400Y1733D01*
D02*
G37*
%LPC*%
G36*
X143000Y88189D02*
X141916Y88046D01*
X140906Y87627D01*
X140038Y86962D01*
X139373Y86094D01*
X138954Y85084D01*
X138811Y84000D01*
X138954Y82916D01*
X139373Y81906D01*
X140038Y81038D01*
X140906Y80373D01*
X141916Y79954D01*
X143000Y79811D01*
X144084Y79954D01*
X145094Y80373D01*
X145962Y81038D01*
X146627Y81906D01*
X147046Y82916D01*
X147189Y84000D01*
X147046Y85084D01*
X146627Y86094D01*
X145962Y86962D01*
X145094Y87627D01*
X144084Y88046D01*
X143000Y88189D01*
D02*
G37*
G36*
X160500Y89649D02*
X159525Y89455D01*
X158698Y88902D01*
X158145Y88076D01*
X157951Y87100D01*
X158145Y86124D01*
X158698Y85298D01*
X158920Y85149D01*
Y77117D01*
X158898Y77102D01*
X158345Y76275D01*
X158151Y75300D01*
X158345Y74325D01*
X158898Y73498D01*
X159724Y72945D01*
X160700Y72751D01*
X161676Y72945D01*
X162502Y73498D01*
X163055Y74325D01*
X163249Y75300D01*
X163055Y76275D01*
X162502Y77102D01*
X162080Y77384D01*
Y85149D01*
X162302Y85298D01*
X162855Y86124D01*
X163049Y87100D01*
X162855Y88076D01*
X162302Y88902D01*
X161476Y89455D01*
X160500Y89649D01*
D02*
G37*
G36*
X161500Y55849D02*
X160524Y55655D01*
X159698Y55102D01*
X159549Y54880D01*
X146600D01*
X145995Y54760D01*
X145731Y54583D01*
X145400Y54649D01*
X144424Y54455D01*
X143598Y53902D01*
X143045Y53075D01*
X142851Y52100D01*
X143045Y51125D01*
X143598Y50298D01*
X144424Y49745D01*
X145400Y49551D01*
X146376Y49745D01*
X147202Y50298D01*
X147755Y51125D01*
X147873Y51720D01*
X159549D01*
X159698Y51498D01*
X160524Y50945D01*
X161500Y50751D01*
X162476Y50945D01*
X163302Y51498D01*
X163855Y52324D01*
X164049Y53300D01*
X163855Y54276D01*
X163302Y55102D01*
X162476Y55655D01*
X161500Y55849D01*
D02*
G37*
G36*
X137153Y88153D02*
X128847D01*
Y79847D01*
X137153D01*
Y88153D01*
D02*
G37*
G36*
X191200Y100349D02*
X190225Y100155D01*
X189398Y99602D01*
X188845Y98776D01*
X188837Y98734D01*
X188346Y98637D01*
X188302Y98702D01*
X187476Y99255D01*
X186500Y99449D01*
X185524Y99255D01*
X184698Y98702D01*
X184145Y97875D01*
X183951Y96900D01*
X184145Y95925D01*
X184698Y95098D01*
X184870Y94983D01*
Y92127D01*
X184920Y91875D01*
Y86547D01*
X184800Y86449D01*
X183825Y86255D01*
X182998Y85702D01*
X182803D01*
X182402Y86302D01*
X182180Y86451D01*
Y95149D01*
X182702Y95498D01*
X183255Y96324D01*
X183449Y97300D01*
X183255Y98276D01*
X182702Y99102D01*
X181876Y99655D01*
X180900Y99849D01*
X179924Y99655D01*
X179098Y99102D01*
X178545Y98276D01*
X178351Y97300D01*
X178545Y96324D01*
X179020Y95614D01*
Y86451D01*
X178798Y86302D01*
X178245Y85475D01*
X178051Y84500D01*
X178245Y83525D01*
X178798Y82698D01*
X179624Y82145D01*
X180600Y81951D01*
X181576Y82145D01*
X182121Y82510D01*
X182777Y82427D01*
X182998Y82098D01*
X183825Y81545D01*
X184800Y81351D01*
X185775Y81545D01*
X186602Y82098D01*
X187155Y82924D01*
X187303Y83668D01*
X187498Y83863D01*
X187516Y83869D01*
X187954Y83853D01*
X188096Y83799D01*
X188498Y83198D01*
X189324Y82645D01*
X190300Y82451D01*
X191276Y82645D01*
X192102Y83198D01*
X192655Y84025D01*
X192849Y85000D01*
X192705Y85723D01*
X192730Y85850D01*
Y95816D01*
X193002Y95998D01*
X193555Y96825D01*
X193749Y97800D01*
X193555Y98776D01*
X193002Y99602D01*
X192175Y100155D01*
X191200Y100349D01*
D02*
G37*
G36*
X248700Y103280D02*
X238348D01*
X237743Y103160D01*
X237230Y102817D01*
X236683Y102269D01*
X236340Y101757D01*
X236220Y101152D01*
Y97280D01*
X219400D01*
X218795Y97160D01*
X218283Y96817D01*
X215762Y94297D01*
X215500Y94349D01*
X214525Y94155D01*
X213698Y93602D01*
X213145Y92775D01*
X212951Y91800D01*
X213145Y90825D01*
X213698Y89998D01*
X214525Y89445D01*
X215500Y89251D01*
X216476Y89445D01*
X217302Y89998D01*
X217855Y90825D01*
X218049Y91800D01*
X217997Y92062D01*
X220055Y94120D01*
X236900D01*
X237505Y94240D01*
X238018Y94582D01*
X238917Y95482D01*
X239260Y95995D01*
X239380Y96600D01*
Y100120D01*
X247920D01*
X248274Y99714D01*
X248251Y99600D01*
X248445Y98624D01*
X248998Y97798D01*
X249825Y97245D01*
X250800Y97051D01*
X251776Y97245D01*
X252602Y97798D01*
X253155Y98624D01*
X253349Y99600D01*
X253155Y100575D01*
X252602Y101402D01*
X251776Y101955D01*
X250800Y102149D01*
X250538Y102097D01*
X249817Y102817D01*
X249305Y103160D01*
X248700Y103280D01*
D02*
G37*
G36*
X175253Y93353D02*
X166947D01*
Y85047D01*
X175253D01*
Y93353D01*
D02*
G37*
G36*
X277358Y59984D02*
X276274Y59841D01*
X275264Y59423D01*
X274396Y58757D01*
X273731Y57890D01*
X273312Y56879D01*
X273170Y55795D01*
X273312Y54711D01*
X273731Y53701D01*
X274396Y52833D01*
X275264Y52168D01*
X276274Y51749D01*
X277358Y51607D01*
X278442Y51749D01*
X279453Y52168D01*
X280320Y52833D01*
X280986Y53701D01*
X281404Y54711D01*
X281547Y55795D01*
X281404Y56879D01*
X280986Y57890D01*
X280320Y58757D01*
X279453Y59423D01*
X278442Y59841D01*
X277358Y59984D01*
D02*
G37*
G36*
X160200Y41649D02*
X159224Y41455D01*
X158398Y40902D01*
X157845Y40075D01*
X157651Y39100D01*
X157845Y38124D01*
X158398Y37298D01*
X158620Y37149D01*
Y34151D01*
X158098Y33802D01*
X157545Y32976D01*
X157351Y32000D01*
X157545Y31025D01*
X158098Y30198D01*
X158924Y29645D01*
X159900Y29451D01*
X160875Y29645D01*
X161702Y30198D01*
X162255Y31025D01*
X162449Y32000D01*
X162255Y32976D01*
X161780Y33686D01*
Y37149D01*
X162002Y37298D01*
X162555Y38124D01*
X162749Y39100D01*
X162555Y40075D01*
X162002Y40902D01*
X161176Y41455D01*
X160200Y41649D01*
D02*
G37*
G36*
X277358Y34393D02*
X276274Y34251D01*
X275264Y33832D01*
X274396Y33167D01*
X273731Y32299D01*
X273312Y31289D01*
X273170Y30205D01*
X273312Y29121D01*
X273731Y28110D01*
X274396Y27243D01*
X275264Y26577D01*
X276274Y26159D01*
X277358Y26016D01*
X278442Y26159D01*
X279453Y26577D01*
X280320Y27243D01*
X280986Y28110D01*
X281404Y29121D01*
X281547Y30205D01*
X281404Y31289D01*
X280986Y32299D01*
X280320Y33167D01*
X279453Y33832D01*
X278442Y34251D01*
X277358Y34393D01*
D02*
G37*
G36*
X259642D02*
X258558Y34251D01*
X257547Y33832D01*
X256680Y33167D01*
X256014Y32299D01*
X255596Y31289D01*
X255453Y30205D01*
X255596Y29121D01*
X256014Y28110D01*
X256680Y27243D01*
X257547Y26577D01*
X258558Y26159D01*
X259642Y26016D01*
X260726Y26159D01*
X261736Y26577D01*
X262603Y27243D01*
X263269Y28110D01*
X263688Y29121D01*
X263830Y30205D01*
X263688Y31289D01*
X263269Y32299D01*
X262603Y33167D01*
X261736Y33832D01*
X260726Y34251D01*
X259642Y34393D01*
D02*
G37*
G36*
X188000Y45689D02*
X186916Y45546D01*
X185906Y45127D01*
X185038Y44462D01*
X184373Y43594D01*
X183954Y42584D01*
X183811Y41500D01*
X183954Y40416D01*
X184373Y39406D01*
X185038Y38538D01*
X185906Y37873D01*
X186916Y37454D01*
X188000Y37311D01*
X189084Y37454D01*
X190094Y37873D01*
X190962Y38538D01*
X191627Y39406D01*
X192046Y40416D01*
X192189Y41500D01*
X192046Y42584D01*
X191627Y43594D01*
X190962Y44462D01*
X190094Y45127D01*
X189084Y45546D01*
X188000Y45689D01*
D02*
G37*
G36*
X259642Y59984D02*
X258558Y59841D01*
X257547Y59423D01*
X256680Y58757D01*
X256014Y57890D01*
X255596Y56879D01*
X255453Y55795D01*
X255596Y54711D01*
X256014Y53701D01*
X256680Y52833D01*
X257547Y52168D01*
X258558Y51749D01*
X259642Y51607D01*
X260726Y51749D01*
X261736Y52168D01*
X262603Y52833D01*
X263269Y53701D01*
X263688Y54711D01*
X263830Y55795D01*
X263688Y56879D01*
X263269Y57890D01*
X262603Y58757D01*
X261736Y59423D01*
X260726Y59841D01*
X259642Y59984D01*
D02*
G37*
G36*
X25000Y47284D02*
X23762Y47121D01*
X22608Y46643D01*
X21617Y45883D01*
X20857Y44892D01*
X20379Y43738D01*
X20216Y42500D01*
X20379Y41262D01*
X20857Y40108D01*
X21617Y39117D01*
X22608Y38357D01*
X23762Y37879D01*
X25000Y37716D01*
X26238Y37879D01*
X27392Y38357D01*
X28383Y39117D01*
X29143Y40108D01*
X29621Y41262D01*
X29784Y42500D01*
X29621Y43738D01*
X29143Y44892D01*
X28383Y45883D01*
X27392Y46643D01*
X26238Y47121D01*
X25000Y47284D01*
D02*
G37*
G36*
X202153Y45653D02*
X193847D01*
Y37347D01*
X202153D01*
Y45653D01*
D02*
G37*
G36*
X108153Y155653D02*
X99847D01*
Y147347D01*
X108153D01*
Y155653D01*
D02*
G37*
G36*
X65298Y168304D02*
X64522Y168202D01*
X63799Y167903D01*
X63178Y167427D01*
X62702Y166806D01*
X62402Y166083D01*
X62300Y165307D01*
X62402Y164531D01*
X62702Y163808D01*
X63178Y163188D01*
X63799Y162711D01*
X64522Y162412D01*
X65298Y162310D01*
X66073Y162412D01*
X66796Y162711D01*
X67417Y163188D01*
X67893Y163808D01*
X68193Y164531D01*
X68295Y165307D01*
X68193Y166083D01*
X67893Y166806D01*
X67417Y167427D01*
X66796Y167903D01*
X66073Y168202D01*
X65298Y168304D01*
D02*
G37*
G36*
X136653Y154153D02*
X128347D01*
Y145847D01*
X136653D01*
Y154153D01*
D02*
G37*
G36*
X114000Y155689D02*
X112916Y155546D01*
X111906Y155127D01*
X111038Y154462D01*
X110373Y153594D01*
X109954Y152584D01*
X109811Y151500D01*
X109954Y150416D01*
X110373Y149406D01*
X111038Y148538D01*
X111906Y147873D01*
X112916Y147454D01*
X114000Y147311D01*
X115084Y147454D01*
X116094Y147873D01*
X116962Y148538D01*
X117627Y149406D01*
X118046Y150416D01*
X118189Y151500D01*
X118046Y152584D01*
X117627Y153594D01*
X116962Y154462D01*
X116094Y155127D01*
X115084Y155546D01*
X114000Y155689D01*
D02*
G37*
G36*
X151000Y173486D02*
X149839Y173334D01*
X148757Y172885D01*
X147828Y172172D01*
X147115Y171243D01*
X146667Y170161D01*
X146514Y169000D01*
X146667Y167839D01*
X147115Y166757D01*
X147828Y165828D01*
X148757Y165115D01*
X149839Y164666D01*
X151000Y164514D01*
X152161Y164666D01*
X153243Y165115D01*
X154172Y165828D01*
X154885Y166757D01*
X155333Y167839D01*
X155486Y169000D01*
X155333Y170161D01*
X154885Y171243D01*
X154172Y172172D01*
X153243Y172885D01*
X152161Y173334D01*
X151000Y173486D01*
D02*
G37*
G36*
X135448Y173448D02*
X126552D01*
Y164552D01*
X135448D01*
Y173448D01*
D02*
G37*
G36*
X82621Y168304D02*
X81845Y168202D01*
X81122Y167903D01*
X80501Y167427D01*
X80025Y166806D01*
X79725Y166083D01*
X79623Y165307D01*
X79725Y164531D01*
X80025Y163808D01*
X80501Y163188D01*
X81122Y162711D01*
X81845Y162412D01*
X82621Y162310D01*
X83396Y162412D01*
X84119Y162711D01*
X84740Y163188D01*
X85216Y163808D01*
X85516Y164531D01*
X85618Y165307D01*
X85516Y166083D01*
X85216Y166806D01*
X84740Y167427D01*
X84119Y167903D01*
X83396Y168202D01*
X82621Y168304D01*
D02*
G37*
G36*
X141000Y173486D02*
X139839Y173334D01*
X138757Y172885D01*
X137828Y172172D01*
X137115Y171243D01*
X136667Y170161D01*
X136514Y169000D01*
X136667Y167839D01*
X137115Y166757D01*
X137828Y165828D01*
X138757Y165115D01*
X139839Y164666D01*
X141000Y164514D01*
X142161Y164666D01*
X143243Y165115D01*
X144172Y165828D01*
X144885Y166757D01*
X145334Y167839D01*
X145486Y169000D01*
X145334Y170161D01*
X144885Y171243D01*
X144172Y172172D01*
X143243Y172885D01*
X142161Y173334D01*
X141000Y173486D01*
D02*
G37*
G36*
X273853Y119053D02*
X265547D01*
Y110747D01*
X273853D01*
Y119053D01*
D02*
G37*
G36*
X26700Y138718D02*
X25307Y138581D01*
X23968Y138174D01*
X22733Y137515D01*
X21651Y136627D01*
X20763Y135545D01*
X20104Y134310D01*
X19697Y132971D01*
X19560Y131578D01*
X19697Y130185D01*
X20104Y128846D01*
X20763Y127611D01*
X21651Y126529D01*
X22733Y125641D01*
X23968Y124982D01*
X25307Y124575D01*
X26700Y124438D01*
X28093Y124575D01*
X29432Y124982D01*
X30667Y125641D01*
X31749Y126529D01*
X32637Y127611D01*
X33296Y128846D01*
X33703Y130185D01*
X33840Y131578D01*
X33703Y132971D01*
X33296Y134310D01*
X32637Y135545D01*
X31749Y136627D01*
X30667Y137515D01*
X29432Y138174D01*
X28093Y138581D01*
X26700Y138718D01*
D02*
G37*
G36*
X23500Y108284D02*
X22262Y108121D01*
X21108Y107643D01*
X20117Y106883D01*
X19357Y105892D01*
X18879Y104738D01*
X18716Y103500D01*
X18879Y102262D01*
X19357Y101108D01*
X20117Y100117D01*
X21108Y99357D01*
X22262Y98879D01*
X23500Y98716D01*
X24738Y98879D01*
X25892Y99357D01*
X26883Y100117D01*
X27643Y101108D01*
X28121Y102262D01*
X28284Y103500D01*
X28121Y104738D01*
X27643Y105892D01*
X26883Y106883D01*
X25892Y107643D01*
X24738Y108121D01*
X23500Y108284D01*
D02*
G37*
G36*
X67353Y108753D02*
X59047D01*
Y100447D01*
X67353D01*
Y108753D01*
D02*
G37*
G36*
X209700Y146889D02*
X208616Y146746D01*
X207606Y146327D01*
X206738Y145662D01*
X206073Y144794D01*
X205654Y143784D01*
X205511Y142700D01*
X205654Y141616D01*
X206073Y140606D01*
X206738Y139738D01*
X207606Y139073D01*
X208616Y138654D01*
X209700Y138511D01*
X210784Y138654D01*
X211794Y139073D01*
X212662Y139738D01*
X213327Y140606D01*
X213746Y141616D01*
X213889Y142700D01*
X213746Y143784D01*
X213327Y144794D01*
X212662Y145662D01*
X211794Y146327D01*
X210784Y146746D01*
X209700Y146889D01*
D02*
G37*
G36*
X223853Y146853D02*
X215547D01*
Y138547D01*
X223853D01*
Y146853D01*
D02*
G37*
G36*
X130500Y142189D02*
X129416Y142046D01*
X128406Y141627D01*
X127538Y140962D01*
X126873Y140094D01*
X126454Y139084D01*
X126311Y138000D01*
X126454Y136916D01*
X126873Y135906D01*
X127538Y135038D01*
X128406Y134373D01*
X129416Y133954D01*
X130500Y133811D01*
X131584Y133954D01*
X132594Y134373D01*
X133462Y135038D01*
X134127Y135906D01*
X134546Y136916D01*
X134689Y138000D01*
X134546Y139084D01*
X134127Y140094D01*
X133462Y140962D01*
X132594Y141627D01*
X131584Y142046D01*
X130500Y142189D01*
D02*
G37*
G36*
X124653Y142153D02*
X116347D01*
Y133847D01*
X124653D01*
Y142153D01*
D02*
G37*
%LPD*%
D52*
X262929Y45071D02*
Y45504D01*
X169800Y72900D02*
X171500D01*
X180300Y110600D02*
X180700Y111000D01*
D53*
X159700Y32200D02*
X160200Y32700D01*
Y39100D01*
X159700Y32200D02*
X159900Y32000D01*
X248700Y101700D02*
X250800Y99600D01*
X238348Y101700D02*
X248700D01*
X190300Y85000D02*
X191150Y85850D01*
Y97750D01*
X191200Y97800D01*
X186450Y92127D02*
Y96850D01*
X186500Y96900D01*
X186450Y92127D02*
X186500Y92077D01*
Y85100D02*
Y92077D01*
X160500Y75500D02*
Y87100D01*
Y75500D02*
X160700Y75300D01*
X180600Y97000D02*
X180900Y97300D01*
X180600Y84500D02*
Y97000D01*
X180900Y97300D02*
X181800D01*
X184800Y83900D02*
X185300D01*
X186500Y85100D01*
X236900Y95700D02*
X237800Y96600D01*
X219400Y95700D02*
X236900D01*
X215500Y91800D02*
X219400Y95700D01*
X237800Y96600D02*
Y101152D01*
X238348Y101700D01*
X145400Y52100D02*
X146600Y53300D01*
X161500D01*
D56*
X26700Y131578D02*
D03*
Y155200D02*
D03*
X8196Y143389D02*
D03*
D57*
X23500Y83500D02*
D03*
X25000Y22500D02*
D03*
D58*
X23500Y103500D02*
D03*
X25000Y42500D02*
D03*
D59*
X131000Y169000D02*
D03*
D60*
X141000D02*
D03*
X151000D02*
D03*
D61*
X198000Y41500D02*
D03*
X219700Y142700D02*
D03*
X132500Y150000D02*
D03*
X269700Y114900D02*
D03*
X63200Y104600D02*
D03*
X104000Y151500D02*
D03*
X120500Y138000D02*
D03*
X133000Y84000D02*
D03*
D62*
X188000Y41500D02*
D03*
X171100Y79200D02*
D03*
X209700Y142700D02*
D03*
X142500Y150000D02*
D03*
X279700Y114900D02*
D03*
X73200Y104600D02*
D03*
X114000Y151500D02*
D03*
X130500Y138000D02*
D03*
X143000Y84000D02*
D03*
X277358Y30205D02*
D03*
X259642D02*
D03*
X277358Y55795D02*
D03*
X259642D02*
D03*
D63*
X171100Y89200D02*
D03*
D64*
X82621Y165307D02*
D03*
X65298D02*
D03*
D65*
X93000Y89700D02*
D03*
X89400Y89600D02*
D03*
X86200D02*
D03*
X103400Y82300D02*
D03*
X244500Y85000D02*
D03*
X160200Y39100D02*
D03*
X165100Y111000D02*
D03*
X250800Y99600D02*
D03*
X199500Y105800D02*
D03*
X191200Y97800D02*
D03*
X160500Y87100D02*
D03*
X160700Y75300D02*
D03*
X163900Y90800D02*
D03*
X96100Y123200D02*
D03*
X83600Y122400D02*
D03*
Y119600D02*
D03*
Y125100D02*
D03*
X55900Y128500D02*
D03*
X49400Y124900D02*
D03*
Y128400D02*
D03*
X52700D02*
D03*
X52800Y124900D02*
D03*
Y121100D02*
D03*
X49400D02*
D03*
X55900D02*
D03*
Y124900D02*
D03*
X94300Y72100D02*
D03*
X90900D02*
D03*
X264500Y181582D02*
D03*
X269500D02*
D03*
X274500D02*
D03*
X284500D02*
D03*
X279500D02*
D03*
X288800D02*
D03*
X259300D02*
D03*
X288200Y154000D02*
D03*
Y104000D02*
D03*
Y89000D02*
D03*
Y39000D02*
D03*
Y64000D02*
D03*
Y19000D02*
D03*
Y34000D02*
D03*
Y54000D02*
D03*
Y14000D02*
D03*
Y9000D02*
D03*
Y49000D02*
D03*
Y59000D02*
D03*
Y29000D02*
D03*
Y24000D02*
D03*
Y99000D02*
D03*
Y69000D02*
D03*
Y79000D02*
D03*
Y159000D02*
D03*
Y44000D02*
D03*
Y84000D02*
D03*
Y94000D02*
D03*
Y119000D02*
D03*
Y139000D02*
D03*
Y74000D02*
D03*
Y134000D02*
D03*
Y109000D02*
D03*
Y129000D02*
D03*
Y149000D02*
D03*
Y124000D02*
D03*
Y144000D02*
D03*
Y114000D02*
D03*
Y4000D02*
D03*
X293500D02*
D03*
X293100Y172682D02*
D03*
X293500Y114000D02*
D03*
Y144000D02*
D03*
Y124000D02*
D03*
Y149000D02*
D03*
Y129000D02*
D03*
Y109000D02*
D03*
Y134000D02*
D03*
Y74000D02*
D03*
Y139000D02*
D03*
Y119000D02*
D03*
Y94000D02*
D03*
Y84000D02*
D03*
Y44000D02*
D03*
Y159000D02*
D03*
Y79000D02*
D03*
Y69000D02*
D03*
Y99000D02*
D03*
Y24000D02*
D03*
Y29000D02*
D03*
Y59000D02*
D03*
Y49000D02*
D03*
Y9000D02*
D03*
Y14000D02*
D03*
Y54000D02*
D03*
Y34000D02*
D03*
Y19000D02*
D03*
Y64000D02*
D03*
Y39000D02*
D03*
X262929Y45071D02*
D03*
X161500Y132500D02*
D03*
X122000Y155000D02*
D03*
X127000Y94000D02*
D03*
X66800Y80800D02*
D03*
X213000Y85800D02*
D03*
X178700Y65700D02*
D03*
X247800Y4000D02*
D03*
X252800D02*
D03*
X242800D02*
D03*
X237800D02*
D03*
X232800D02*
D03*
X222900D02*
D03*
X227900D02*
D03*
X217900D02*
D03*
X212900D02*
D03*
X207900D02*
D03*
X283300D02*
D03*
X273000D02*
D03*
X278000D02*
D03*
X268000D02*
D03*
X263000D02*
D03*
X258000D02*
D03*
X180900Y97300D02*
D03*
X180600Y84500D02*
D03*
X186500Y96900D02*
D03*
X177700Y93400D02*
D03*
X70000Y90500D02*
D03*
X190300Y85000D02*
D03*
X209350Y53750D02*
D03*
X153200Y30400D02*
D03*
X266888Y80788D02*
D03*
X268360Y90340D02*
D03*
X261747Y115047D02*
D03*
X180700Y111000D02*
D03*
X172200Y110600D02*
D03*
X169800Y72900D02*
D03*
X293500Y89000D02*
D03*
X222300Y110500D02*
D03*
X225800D02*
D03*
X228800D02*
D03*
X264404Y124300D02*
D03*
X234800Y102500D02*
D03*
Y99000D02*
D03*
X231800Y102500D02*
D03*
X228800Y99000D02*
D03*
X231800D02*
D03*
X225800Y106500D02*
D03*
Y99000D02*
D03*
X222300Y102500D02*
D03*
Y106500D02*
D03*
X293500Y104000D02*
D03*
Y154000D02*
D03*
X215500Y91800D02*
D03*
X184800Y83900D02*
D03*
X232300Y110400D02*
D03*
X222500Y99100D02*
D03*
X235100Y110500D02*
D03*
X229300Y106500D02*
D03*
X235100Y106600D02*
D03*
X232300Y106500D02*
D03*
X228800Y102600D02*
D03*
X225600Y102700D02*
D03*
X159900Y32000D02*
D03*
X161500Y53300D02*
D03*
X113000Y61000D02*
D03*
X156500Y83800D02*
D03*
X111700Y92300D02*
D03*
X205000Y105600D02*
D03*
X188800Y93300D02*
D03*
X239200Y136600D02*
D03*
X239100Y132300D02*
D03*
X293100Y178782D02*
D03*
Y181582D02*
D03*
X183600Y93400D02*
D03*
X212500Y162000D02*
D03*
X217000Y72500D02*
D03*
X223600D02*
D03*
X231000D02*
D03*
X237300D02*
D03*
X104500Y126200D02*
D03*
X145400Y52100D02*
D03*
M02*
