M48
;Layer_Color=9474304
;FILE_FORMAT=2:5
INCH,LZ
;TYPE=PLATED
T1F00S00C0.01600
T2F00S00C0.03543
T3F00S00C0.03937
T4F00S00C0.04331
T5F00S00C0.04724
T6F00S00C0.07480
%
T01
X01532Y00304
X01599Y0032
X02079Y0004
X02129
X02179
X02229
X02279
X02328
X02378
X02428
X02478
X02528
X0258
X0263
X0268
X0273
X0278
X02833
X02882
Y0009
Y0014
Y0019
Y0024
Y0029
Y0034
X02935
Y0029
Y0024
Y0019
Y0014
Y0009
Y0004
Y0039
Y0044
Y0049
Y0054
Y0059
Y0064
Y0069
Y0074
Y0079
Y0084
Y0089
Y0094
Y0099
Y0104
Y0109
Y0114
Y0119
Y0124
Y0129
Y0134
Y0139
Y0144
Y0149
Y0154
Y0159
X02882
Y0154
Y0149
Y0144
Y0139
Y0134
Y0129
Y0124
Y0119
Y0114
Y0109
Y0104
Y0099
Y0094
Y0089
Y0084
Y0079
Y0074
Y0069
Y0064
Y0059
Y0054
Y0049
Y0044
Y0039
X0262929Y0045071
X0266888Y0080788
X026836Y009034
X0261747Y0115047
X0264404Y01243
X02645Y0181582
X02695
X02745
X02795
X02845
X02888
X02931
Y0178782
Y0172682
X02593Y0181582
X02392Y01366
X02391Y01323
X02351Y01105
X02323Y01104
X02288Y01105
X02258
X02223
Y01065
X02258
X02293
X02323
X02351Y01066
X02348Y01025
X02318
X02288Y01026
X02256Y01027
X02223Y01025
X02225Y00991
X02258Y0099
X02288
X02318
X02348
X02508Y00996
X02445Y0085
X02373Y00725
X0231
X02236
X0217
X0213Y00858
X02155Y00918
X0205Y01056
X01995Y01058
X01912Y00978
X01865Y00969
X01888Y00933
X01836Y00934
X01777
X01809Y00973
X01806Y00845
X01848Y00839
X01903Y0085
X01787Y00657
X01698Y00729
X01607Y00753
X01605Y00871
X01639Y00908
X01565Y00838
X01615Y00533
X01602Y00391
X01454Y00521
X0113Y0061
X01117Y00923
X0127Y0094
X01651Y0111
X01722Y01106
X01807Y0111
X01615Y01325
X0122Y0155
X02125Y0162
X020935Y005375
X00943Y00721
X00909
X00894Y00896
X00862
X0093Y00897
X01034Y00823
X00668Y00808
X007Y00905
X00836Y01196
Y01224
Y01251
X00961Y01232
X01045Y01262
X00559Y01249
X00528
X00494
Y01284
X00527
X00559Y01285
Y01211
X00528
X00494
T02
X02697Y01149
X02797
X02197Y01427
X02097
X01425Y015
X01325
X01305Y0138
X01205
X0114Y01515
X0133Y0084
X0143
X01711Y00792
Y00892
X0188Y00415
X0198
X00732Y01046
X00632
X0104Y01515
T03
X0259642Y0030205
X0277358
Y0055795
X0259642
T04
X0131Y0169
X0141
X0151
T05
X0025Y00225
Y00425
X00235Y00835
Y01035
T06
X0008196Y0143389
X00267Y0131578
Y01552
M30
